<?xml version="1.0" standalone="no"?>
<!DOCTYPE svg PUBLIC "-//W3C//DTD SVG 1.1//EN" "http://www.w3.org/Graphics/SVG/1.1/DTD/svg11.dtd" >
<svg xmlns="http://www.w3.org/2000/svg">
<metadata>Generated by IcoMoon</metadata>
<defs>
<font id="icomoon" horiz-adv-x="1024">
<font-face units-per-em="1024" ascent="960" descent="-64" />
<missing-glyph horiz-adv-x="1024" />
<glyph unicode="&#x20;" horiz-adv-x="512" d="" />
<glyph unicode="&#xe900;" glyph-name="social-google-plus" d="M336.282 496.004v-115.422h190.787c-7.64-49.555-57.608-145.154-190.787-145.154-114.802 0-208.544 95.187-208.544 212.468s93.742 212.468 208.544 212.468c65.454 0 109.021-27.875 134.005-51.826l91.264 87.96c-58.64 54.717-134.624 87.96-225.269 87.96-186.038-0.206-336.355-150.523-336.355-336.561s150.317-336.355 336.355-336.355c194.091 0 322.932 136.483 322.932 328.714 0 22.093-2.477 39.023-5.369 55.749h-317.566zM1024.069 505.709h-99.11v99.11h-99.11v-99.11h-99.11v-99.11h99.11v-99.11h99.11v99.11h99.11z" />
<glyph unicode="&#xe901;" glyph-name="social-twitter" d="M945.206 689.648c-31.814-14.214-66.166-23.691-102.040-27.922 36.721 21.998 64.812 56.858 78.18 98.318-34.352-20.306-72.426-35.198-112.87-43.152-32.49 34.522-78.688 56.012-129.792 56.012-98.148 0-177.682-79.534-177.682-177.682 0-13.876 1.523-27.414 4.569-40.444-147.73 7.446-278.708 78.18-366.364 185.806-15.23-26.23-24.030-56.858-24.030-89.349 0-61.596 31.306-116.086 79.026-147.9-29.106 0.846-56.52 8.968-80.55 22.168 0-0.676 0-1.523 0-2.2 0-86.134 61.258-158.052 142.654-174.298-14.892-4.062-30.63-6.262-46.874-6.262-11.507 0-22.506 1.184-33.506 3.216 22.676-70.566 88.334-122.008 166.006-123.532-60.92-47.72-137.408-76.15-220.834-76.15-14.384 0-28.43 0.846-42.474 2.538 78.858-50.598 172.268-79.872 272.616-79.872 326.936 0 505.802 270.924 505.802 505.802 0 7.784-0.17 15.4-0.508 23.014 34.69 24.876 64.812 56.182 88.672 91.888z" />
<glyph unicode="&#xe902;" glyph-name="select-arrow" d="M797.867 584.534c-17.067 17.067-42.667 17.067-59.733 0l-226.133-226.133-226.133 226.133c-17.067 17.067-42.667 17.067-59.733 0s-17.067-42.667 0-59.733l256-256c8.533-8.533 21.333-12.8 29.867-12.8s21.333 4.267 29.867 12.8l256 256c17.067 17.067 17.067 42.667 0 59.733z" />
<glyph unicode="&#xe903;" glyph-name="social-instagram" d="M512 789.049c111.138 0 124.299-0.487 168.007-2.436 40.62-1.786 62.555-8.611 77.18-14.298 19.336-7.475 33.308-16.572 47.769-31.033 14.623-14.623 23.561-28.433 31.197-47.769 5.686-14.623 12.511-36.722 14.298-77.18 1.95-43.869 2.436-57.030 2.436-168.007s-0.487-124.299-2.436-168.007c-1.786-40.62-8.611-62.555-14.298-77.18-7.475-19.336-16.572-33.308-31.033-47.769-14.623-14.623-28.433-23.561-47.769-31.197-14.623-5.686-36.722-12.511-77.18-14.298-43.869-1.95-57.030-2.436-168.007-2.436s-124.299 0.487-168.007 2.436c-40.62 1.786-62.555 8.611-77.18 14.298-19.336 7.475-33.308 16.572-47.769 31.033-14.623 14.623-23.561 28.433-31.197 47.769-5.686 14.623-12.511 36.722-14.298 77.18-1.95 43.869-2.436 57.030-2.436 168.007s0.487 124.299 2.436 168.007c1.786 40.62 8.611 62.555 14.298 77.18 7.475 19.336 16.572 33.308 31.033 47.769 14.623 14.623 28.433 23.561 47.769 31.197 14.623 5.686 36.722 12.511 77.18 14.298 43.708 1.95 56.869 2.436 168.007 2.436zM512 863.952c-112.924 0-127.060-0.487-171.418-2.436-44.194-1.95-74.58-9.1-100.902-19.336-27.459-10.725-50.694-24.86-73.766-48.094-23.236-23.072-37.372-46.308-48.094-73.605-10.236-26.484-17.386-56.705-19.336-100.902-1.95-44.519-2.436-58.655-2.436-171.58s0.487-127.060 2.436-171.418c1.95-44.194 9.1-74.58 19.336-100.902 10.725-27.459 24.86-50.694 48.094-73.766 23.072-23.072 46.308-37.372 73.605-47.933 26.484-10.236 56.705-17.386 100.902-19.336 44.358-1.95 58.494-2.436 171.418-2.436s127.060 0.487 171.418 2.436c44.194 1.95 74.58 9.1 100.902 19.336 27.297 10.561 50.533 24.86 73.605 47.933s37.372 46.308 47.933 73.605c10.236 26.484 17.386 56.705 19.336 100.902 1.95 44.358 2.436 58.494 2.436 171.418s-0.487 127.060-2.436 171.418c-1.95 44.194-9.1 74.58-19.336 100.902-10.236 27.622-24.372 50.858-47.608 73.93-23.072 23.072-46.308 37.372-73.605 47.933-26.484 10.236-56.705 17.386-100.902 19.336-44.519 2.111-58.655 2.6-171.58 2.6v0zM512 661.662c-117.962 0-213.662-95.702-213.662-213.662s95.702-213.662 213.662-213.662 213.662 95.702 213.662 213.662c0 117.962-95.702 213.662-213.662 213.662zM512 309.404c-76.53 0-138.596 62.069-138.596 138.596s62.069 138.596 138.596 138.596c76.53 0 138.596-62.069 138.596-138.596s-62.069-138.596-138.596-138.596zM783.995 670.112c0-27.55-22.333-49.883-49.883-49.883s-49.883 22.333-49.883 49.883c0 27.55 22.333 49.883 49.883 49.883s49.883-22.333 49.883-49.883z" />
<glyph unicode="&#xe904;" glyph-name="social-facebook" d="M589.994 707.982h129.991v155.988h-129.991c-100.348 0-181.988-81.64-181.988-181.988v-77.994h-103.994v-155.988h103.994v-415.97h155.988v415.97h129.991l25.997 155.988h-155.988v77.994c0 14.093 11.906 25.997 25.997 25.997z" />
<glyph unicode="&#xe905;" glyph-name="comments" d="M938 768.667v-768l-170 170h-598c-46 0-84 40-84 86v512c0 46 38 84 84 84h684c46 0 84-38 84-84z" />
<glyph unicode="&#xe906;" glyph-name="bookmark" d="M102.4 870.4c0 56.32 46.080 102.4 102.4 102.4h614.4c56.554 0 102.4-45.846 102.4-102.4v0-921.6l-409.6 204.8-409.6-204.8v921.6z" />
<glyph unicode="&#xe907;" glyph-name="share-facebook" d="M543.333 216.4h-91.467v220.933h-45.733v76.133h45.733v45.733c0 62.133 25.733 99.067 99.067 99.067h61.067v-76.133h-38.133c-28.533 0-30.4-10.667-30.4-30.533l-0.133-38.133h69.067l-8.133-76.133h-61.067v-220.933zM512 955.733c-280.4 0-507.733-227.333-507.733-507.733s227.333-507.733 507.733-507.733 507.733 227.333 507.733 507.733-227.333 507.733-507.733 507.733zM512 3.067c-245.733 0-444.933 199.2-444.933 444.933s199.2 444.933 444.933 444.933 444.933-199.2 444.933-444.933-199.2-444.933-444.933-444.933z" />
<glyph unicode="&#xe908;" glyph-name="social-youtube" d="M969.194 634.595c0 0-9.111 64.324-37.173 92.569-35.533 37.173-75.258 37.355-93.48 39.542-130.471 9.476-326.359 9.476-326.359 9.476h-0.364c0 0-195.888 0-326.359-9.476-18.222-2.187-57.947-2.369-93.48-39.542-28.062-28.244-36.991-92.569-36.991-92.569s-9.293-75.44-9.293-151.062v-70.702c0-75.44 9.293-151.062 9.293-151.062s9.111-64.324 36.991-92.569c35.533-37.173 82.182-35.898 102.955-39.907 74.711-7.107 317.248-9.293 317.248-9.293s196.071 0.364 326.541 9.658c18.222 2.187 57.947 2.369 93.48 39.542 28.062 28.244 37.173 92.569 37.173 92.569s9.293 75.44 9.293 151.062v70.702c-0.182 75.44-9.476 151.062-9.476 151.062zM415.605 327.005v262.217l252.013-131.564-252.013-130.653z" />
<glyph unicode="&#xe909;" glyph-name="social-linkedin" d="M393.849 566.151h163.478v-83.797h2.337c22.744 40.793 78.421 83.797 161.389 83.797 172.561 0 204.475-107.421 204.475-247.133v-284.546h-170.405v252.25c0 60.168-1.231 137.559-88.639 137.559-88.75 0-102.293-65.524-102.293-133.189v-256.62h-170.342v531.679zM98.472 566.151h177.226v-531.679h-177.226v531.679zM275.698 713.839c0-48.939-39.674-88.613-88.613-88.613s-88.613 39.674-88.613 88.613c0 48.939 39.674 88.613 88.613 88.613s88.613-39.674 88.613-88.613z" />
<glyph unicode="&#xe90a;" glyph-name="arrow-right" d="M512 923.429c-261.486 0-475.429-213.943-475.429-475.429s213.943-475.429 475.429-475.429 475.429 213.943 475.429 475.429-213.943 475.429-475.429 475.429zM512 16.153c-237.714 0-431.849 194.135-431.849 431.849s194.135 431.849 431.849 431.849 431.847-194.135 431.847-431.849-194.135-431.849-431.849-431.849zM710.096 459.886c0 3.961-3.961 3.961-3.961 7.922l-158.475 158.475c-7.925 7.925-19.808 7.925-27.735 0s-7.922-19.808 0-27.735l122.818-122.818h-309.029c-11.886 0-19.808-7.925-19.808-19.808s7.922-19.808 19.808-19.808h305.065l-122.818-122.818c-7.922-7.922-7.922-19.808 0-27.735 3.961-3.961 7.925-7.925 15.847-7.925s11.886 3.961 15.847 7.925l158.475 158.475c0 0 3.961 3.961 3.961 7.925 0-3.961 0 0 0 7.922z" />
<glyph unicode="&#xe90b;" glyph-name="arrow-up" d="M36.571 448c0-261.486 213.943-475.429 475.429-475.429s475.429 213.943 475.429 475.429-213.943 475.429-475.429 475.429-475.429-213.943-475.429-475.429zM943.847 448c0-237.714-194.135-431.847-431.849-431.847s-431.849 194.135-431.849 431.849 194.135 431.849 431.849 431.849 431.849-194.135 431.849-431.849zM500.114 646.096c-3.961 0-3.961-3.961-7.922-3.961l-158.475-158.478c-7.925-7.922-7.925-19.808 0-27.735s19.808-7.922 27.735 0l122.818 122.818v-305.065c0-11.886 7.925-19.808 19.808-19.808s19.808 7.922 19.808 19.808v301.104l122.818-122.818c7.922-7.925 19.808-7.925 27.735 0 3.961 3.961 7.925 7.922 7.925 15.849 0 3.961-3.961 11.886-7.925 15.849l-158.475 158.475c0 0-3.961 3.961-7.925 3.961 3.961 0 0 0-7.922 0z" />
<glyph unicode="&#xe90c;" glyph-name="plus" d="M512 923.429c-261.486 0-475.429-213.943-475.429-475.429s213.943-475.429 475.429-475.429 475.429 213.943 475.429 475.429c0 261.486-213.943 475.429-475.429 475.429zM512 8.229c-241.678 0-439.771 198.096-439.771 439.771s198.096 439.771 439.771 439.771 439.771-198.096 439.771-439.771c0-241.678-198.096-439.771-439.771-439.771zM690.286 467.808h-162.439v158.475c0 11.886-7.925 19.808-19.808 19.808s-19.808-7.922-19.808-19.808v-158.478h-154.514c-11.886 0-19.808-7.922-19.808-19.808s7.925-19.808 19.808-19.808h162.439v-162.439c0-11.886 7.922-19.808 19.808-19.808s19.808 7.922 19.808 19.808v162.439h162.439c11.886 0 19.808 7.922 19.808 19.808-7.922 11.886-15.847 19.808-27.735 19.808z" />
<glyph unicode="&#xe90d;" glyph-name="close" d="M848.816 784.816c-186.24 186.24-487.392 186.24-673.632 0s-186.24-487.392 0-673.632 487.392-186.24 673.632 0 186.24 487.392 0 673.632zM202.921 138.921c-170.389 170.389-170.389 451.728 0 622.119s451.728 170.389 622.119 0 170.389-451.728 0-622.119-451.728-174.352-622.119 0zM650.688 337.049l-114.912 114.912 110.951 110.951c7.925 7.925 7.925 19.813 0 27.737s-19.813 7.925-27.737 0l-110.951-110.951-106.99 106.99c-7.925 7.925-19.813 7.925-27.737 0s-7.925-19.813 0-27.737l114.912-114.912-114.912-114.912c-7.925-7.925-7.925-19.813 0-27.737s19.813-7.925 27.737 0l114.912 114.912 114.912-114.912c7.925-7.925 19.813-7.925 27.737 0 0 15.849 0 27.737-7.925 35.664z" />
<glyph unicode="&#xe90e;" glyph-name="arrow-left" d="M512-27.429c261.486 0 475.429 213.943 475.429 475.429s-213.943 475.429-475.429 475.429-475.429-213.943-475.429-475.429 213.943-475.429 475.429-475.429zM512 879.849c237.714 0 431.847-194.135 431.847-431.849s-194.135-431.847-431.849-431.847-431.849 194.135-431.849 431.849 194.135 431.849 431.849 431.849zM313.904 436.114c0-3.961 3.961-3.961 3.961-7.922l158.478-158.475c7.922-7.925 19.808-7.925 27.735 0s7.922 19.808 0 27.735l-122.818 122.818h305.065c11.886 0 19.808 7.922 19.808 19.808s-7.922 19.808-19.808 19.808h-301.104l122.818 122.818c7.925 7.922 7.925 19.808 0 27.735-3.961 3.961-7.922 7.925-15.849 7.925s-11.886-3.961-15.849-7.925l-158.475-158.475c0 0-3.961-3.961-3.961-7.922 0 3.961 0 0 0-7.925z" />
<glyph unicode="&#xe90f;" glyph-name="info-with-circle" d="M512 918.187c-271.514 0-491.571-220.058-491.571-491.52 0-271.514 220.058-491.571 491.571-491.571 271.411 0 491.52 220.058 491.52 491.571 0 271.462-220.109 491.52-491.52 491.52zM557.875 740.728c47.923 0 62.003-27.802 62.003-59.597 0-39.68-31.744-76.39-85.965-76.39-45.363 0-66.97 22.784-65.638 60.518 0 31.795 26.573 75.469 89.6 75.469zM435.098 132.267c-32.768 0-56.678 19.917-33.792 107.213l37.53 154.88c6.502 24.781 7.578 34.714 0 34.714-9.779 0-52.326-17.101-77.414-33.997l-16.333 26.778c79.616 66.509 171.162 105.523 210.33 105.523 32.768 0 38.195-38.707 21.862-98.304l-43.008-162.816c-7.629-28.774-4.352-38.707 3.277-38.707 9.83 0 41.984 11.878 73.626 36.813l18.534-24.883c-77.466-77.414-161.894-107.213-194.611-107.213z" />
<glyph unicode="&#xe910;" glyph-name="lock-closed" d="M813.175 577.256h-60.236v120.472c0 132.817-108.064 240.938-240.938 240.938s-240.938-108.121-240.938-240.938v-120.472h-60.236c-66.437 0-120.472-53.971-120.472-120.472v-421.646c0-66.5 54.029-120.472 120.472-120.472h602.348c66.437 0 120.472 53.971 120.472 120.472v421.646c0 66.5-54.029 120.472-120.472 120.472zM512.001 77.367c-43.311 0-78.307 34.939-78.307 78.244s34.995 78.364 78.307 78.364 78.307-35.059 78.307-78.364-34.995-78.244-78.307-78.244zM632.473 517.021h-240.938v180.702c0 66.5 54.029 120.472 120.472 120.472s120.472-53.971 120.472-120.472v-180.702z" />
<glyph unicode="&#xe911;" glyph-name="search" d="M621.668 306.332c-44.476-31.692-98.895-50.332-157.668-50.332-150.221 0-272 121.779-272 272s121.779 272 272 272c150.221 0 272-121.779 272-272 0-58.773-18.641-113.192-50.332-157.668l178.714-178.714c17.606-17.606 17.46-45.778-0.006-63.244l-0.75-0.75c-17.421-17.421-45.781-17.469-63.244-0.006l-178.714 178.714zM464 320c114.875 0 208 93.125 208 208s-93.125 208-208 208c-114.875 0-208-93.125-208-208s93.125-208 208-208v0z" />
<glyph unicode="&#xe912;" glyph-name="divider" d="M669.867 456.534l-256 256c-17.067 17.067-42.667 17.067-59.733 0s-17.067-42.667 0-59.733l226.133-226.133-226.133-226.133c-17.067-17.067-17.067-42.667 0-59.733 8.533-8.533 17.067-12.8 29.867-12.8s21.333 4.267 29.867 12.8l256 256c17.067 17.067 17.067 42.667 0 59.733z" />
<glyph unicode="&#xe913;" glyph-name="share-google" d="M434.533 474.4v-63.467h105.067c-4.267-27.2-31.733-79.867-105.067-79.867-63.2 0-114.8 52.4-114.8 116.933s51.6 116.933 114.8 116.933c36 0 60-15.333 73.733-28.533l50.267 48.4c-32.267 30.133-74 48.4-124 48.4-102.4 0-185.2-82.8-185.2-185.2s82.8-185.2 185.2-185.2c106.8 0 177.733 75.067 177.733 180.933 0 12.133-1.333 21.467-2.933 30.667h-174.8zM798.667 474.4h-52.933v52.933h-52.8v-52.933h-52.933v-52.8h52.933v-52.933h52.8v52.933h52.933zM512 955.733c-280.4 0-507.733-227.333-507.733-507.733s227.333-507.733 507.733-507.733 507.733 227.333 507.733 507.733-227.333 507.733-507.733 507.733zM512 3.067c-245.733 0-444.933 199.2-444.933 444.933s199.2 444.933 444.933 444.933 444.933-199.2 444.933-444.933-199.2-444.933-444.933-444.933z" />
<glyph unicode="&#xe914;" glyph-name="share-linkedin" d="M417.733 259.467h-83.6v271.867h83.6v-271.867zM375.867 566.133c-30.133 0-45.333 14-45.333 41.867 0 11.6 4.267 21.6 13.067 29.6 8.667 8.133 19.333 12.133 32.267 12.133 30.133 0 45.333-14 45.333-41.867s-15.067-41.733-45.333-41.733v0zM728 259.467h-85.333v151.6c0 39.467-14 59.2-41.867 59.2-22 0-36.533-11.067-43.6-33.067-2.267-3.467-3.467-10.533-3.467-20.933v-156.8h-85.333v184.8c0 41.867-0.667 70.8-1.733 87.067h73.2l5.2-36.533c19.2 29.067 47.067 43.6 85.333 43.6 29.067 0 52.667-10.133 70.533-30.533 18.133-20.4 27.067-49.733 27.067-88v-160.4zM512 955.733c-280.4 0-507.733-227.333-507.733-507.733s227.333-507.733 507.733-507.733 507.733 227.333 507.733 507.733-227.333 507.733-507.733 507.733zM512 3.067c-245.733 0-444.933 199.2-444.933 444.933s199.2 444.933 444.933 444.933 444.933-199.2 444.933-444.933-199.2-444.933-444.933-444.933z" />
<glyph unicode="&#xe915;" glyph-name="share-twitter" d="M695.6 570c20.4 12.533 34 29.6 40.533 51.467-19.867-10.533-39.6-17.733-59.467-21.733-17.733 19.067-40.267 28.8-67.2 28.8-26.4 0-48.667-9.333-66.8-27.2-18-18.133-27.2-40.133-27.2-65.867 0-7.733 0.933-14.8 2.933-20.667-77.867 2.667-142.133 34.933-192.933 97.067-8.533-15.2-12.933-30.667-12.933-46.667 0-32.933 13.867-58.933 41.467-78.133-15.733 1.333-29.6 5.333-41.467 11.867 0-23.467 6.933-43.067 20.8-60.4 13.867-17.067 31.733-28 53.467-32.533-7.867-2-16.267-3.067-24.8-3.067-8 0-13.467 0.667-16.8 2.133 5.867-19.2 16.8-34.667 32.667-46.533 15.733-12 34-18.267 54.4-18.8-33.6-26.4-72.133-39.467-115.733-39.467-10.667 0-18.267 0.133-22.8 0.933 42.933-27.867 90.667-41.733 143.467-41.733 54.133 0 102 13.733 143.467 41.067 41.467 27.2 72.267 60.933 92 100.533s29.6 80.667 29.6 123.733v11.867c19.067 14.4 34.667 30.667 46.533 48.533-16.933-7.467-34.8-12.533-53.2-15.2v0zM512 955.733c-280.4 0-507.733-227.333-507.733-507.733s227.333-507.733 507.733-507.733 507.733 227.333 507.733 507.733-227.333 507.733-507.733 507.733zM512 3.067c-245.733 0-444.933 199.2-444.933 444.933s199.2 444.933 444.933 444.933 444.933-199.2 444.933-444.933-199.2-444.933-444.933-444.933z" />
<glyph unicode="&#xe916;" glyph-name="close-fill" d="M848.8 784.8c-186.2 186.2-487.4 186.2-673.6 0s-186.2-487.4 0-673.6 487.4-186.2 673.6 0 186.3 487.4 0 673.6zM690.6 300.5c8.6-8.6 8.6-22.5 0-31.1-4.3-4.3-9.9-6.4-15.6-6.4s-11.3 2.1-15.6 6.4l-147.4 147.5-147.5-147.5c-4.3-4.3-9.9-6.4-15.6-6.4s-11.3 2.1-15.6 6.4c-8.6 8.6-8.6 22.5 0 31.1l147.6 147.5-147.5 147.5c-8.6 8.6-8.6 22.5 0 31.1s22.5 8.6 31.1 0l147.5-147.5 147.5 147.5c8.6 8.6 22.5 8.6 31.1 0s8.6-22.5 0-31.1l-147.5-147.5 147.5-147.5z" />
<glyph unicode="&#xe917;" glyph-name="arrow-up-fill" d="M848.8 784.8c-186.2 186.2-487.4 186.2-673.6 0s-186.2-487.4 0-673.6 487.4-186.2 673.6 0 186.3 487.4 0 673.6zM697.5 448.2c-4.3-4.3-9.9-6.4-15.6-6.4s-11.3 2.1-15.6 6.4l-131.9 131.9v-318c0-12.2-9.8-22-22-22s-22 9.8-22 22v319.3l-132.8-132.8c-8.6-8.6-22.5-8.6-31.1 0s-8.6 22.5 0 31.1l169.7 169.7c4.4 4.4 10.1 6.5 15.8 6.4 0.1 0 0.3 0 0.4 0 7.7 0 14.4-3.9 18.4-9.9l166.7-166.7c8.6-8.5 8.6-22.4 0-31z" />
<glyph unicode="&#xe918;" glyph-name="email" d="M512 540.848l449.509 227.832c-36.944 49.259-92.364 80.048-160.1 80.048h-578.821c-67.736 0-123.152-30.788-160.1-80.048l449.509-227.832zM542.788 393.064c-12.316-6.156-18.472-6.156-30.788-6.156s-24.633 0-30.788 6.156l-455.669 227.832v-357.145c0-104.68 86.208-190.889 190.889-190.889h578.821c104.68 0 190.889 86.208 190.889 190.889v357.145l-443.353-227.832z" />
<glyph unicode="&#xe919;" glyph-name="show-pass" d="M973.525 472.513c-7.851 11.221-196.053 274.133-461.525 274.133s-453.675-262.912-461.525-274.133c-10.411-14.72-10.411-34.389 0-49.109 7.851-11.179 196.053-274.091 461.525-274.091s453.675 262.912 461.525 274.091c10.411 14.763 10.411 34.389 0 49.109zM512 234.647c-177.749 0-322.091 152.533-372.523 213.376 50.304 60.843 194.176 213.291 372.523 213.291 177.749 0 322.091-152.576 372.523-213.376-50.304-60.885-194.176-213.291-372.523-213.291zM512 618.647c-94.123 0-170.667-76.587-170.667-170.667 0-94.123 76.544-170.667 170.667-170.667s170.667 76.544 170.667 170.667c0 94.080-76.544 170.667-170.667 170.667zM512 362.647c-47.061 0-85.333 38.272-85.333 85.333 0 47.019 38.272 85.333 85.333 85.333s85.333-38.315 85.333-85.333c0-47.061-38.272-85.333-85.333-85.333z" />
<glyph unicode="&#xe91a;" glyph-name="hide-pass" d="M973.952 471.211c-4.096 6.315-64.939 97.365-174.976 169.771l169.387 169.429-60.331 60.331-830.763-830.805 60.331-60.331 219.563 219.563c46.635-14.549 98.048-23.637 154.368-23.637 290.304 0 455.125 238.293 461.995 248.491l15.915 23.381-15.488 23.808zM511.488 260.864c-29.525 0-57.387 3.328-83.968 8.704l81.365 81.365c10.752-2.944 21.973-4.736 33.707-4.736 70.656 0 128 57.259 128 128 0 11.691-1.792 22.955-4.736 33.707l70.869 70.869c72.192-44.032 122.837-99.243 147.797-130.219-46.379-55.040-178.432-187.691-373.035-187.691zM196.437 279.808l61.995 61.995c-57.216 38.272-98.261 81.024-119.979 106.795 45.653 57.003 177.237 196.267 373.077 196.267 16.128 0 31.659-1.237 46.891-3.072l73.216 73.216c-37.291 9.344-77.141 15.189-120.107 15.189-290.816 0-455.595-248.405-462.421-258.987l-15.445-23.808 15.915-23.381c3.669-5.504 54.528-78.72 146.859-144.213z" />
<glyph unicode="&#xe91b;" glyph-name="success" d="M512 951.999c-278.358 0-503.999-225.641-503.999-503.999s225.641-503.999 503.999-503.999 503.999 225.641 503.999 503.999-225.69 503.999-503.999 503.999zM474.2 158.202l-251.998 189 75.6 100.8 151.2-113.4 264.599 352.799 100.8-75.6-340.199-453.599z" />
<glyph unicode="&#xe91c;" glyph-name="error" d="M512 943.998c-273.493 0-495.998-222.505-495.998-495.998s222.505-495.998 495.998-495.998 495.998 222.505 495.998 495.998-222.505 495.998-495.998 495.998zM759.998 398.401h-495.998v99.199h495.998v-99.199z" />
<glyph unicode="&#xe91d;" glyph-name="error-triange" d="M971.449-25.426l-461.674 923.348c-7.135 14.228-30.47 14.228-37.564 0l-461.674-923.348c-6.967-13.85 3.105-30.387 18.761-30.387h923.348c15.697 0 25.769 16.537 18.803 30.387zM469.988 567.364c0.042 11.584 9.443 20.985 21.027 20.985 11.542 0 20.985-9.401 20.944-20.985v-321.157c0.042-11.542-9.401-20.985-20.944-20.985-11.584 0-20.985 9.443-21.027 20.985v321.157zM491.015 65.566c-22.203 0-40.166 17.963-40.166 40.123 0 22.118 17.963 40.166 40.166 40.166 22.118 0 40.123-18.048 40.123-40.166 0-22.203-18.005-40.123-40.123-40.123z" />
<glyph unicode="&#xe91e;" glyph-name="check-light" d="M424.653 102.502c-22.272 0-43.366 10.394-56.883 28.314l-182.938 241.715c-23.808 31.386-17.613 76.083 13.824 99.891 31.488 23.91 76.186 17.613 99.994-13.824l120.371-158.925 302.643 485.99c20.838 33.382 64.87 43.622 98.355 22.784 33.434-20.787 43.725-64.819 22.835-98.304l-357.581-573.952c-12.39-20.019-33.843-32.512-57.344-33.587-1.126-0.102-2.15-0.102-3.277-0.102z" />
<glyph unicode="&#xe91f;" glyph-name="cross-light" d="M734.618 212.531c-24.013-24.013-62.925-24.013-86.886 0l-135.731 155.136-135.731-155.085c-24.013-24.013-62.925-24.013-86.886 0-24.013 24.013-24.013 62.925 0 86.886l141.21 161.28-141.261 161.382c-24.013 24.013-24.013 62.874 0 86.886s62.874 24.013 86.886 0l135.782-155.187 135.731 155.187c24.013 24.013 62.874 24.013 86.886 0s24.013-62.925 0-86.886l-141.21-161.382 141.21-161.28c24.013-24.013 24.013-62.925 0-86.938z" />
<glyph unicode="&#xe920;" glyph-name="avail" d="M954.857 627.428c0-14.286-5.714-28.571-16-38.857l-491.429-491.429c-10.286-10.286-24.571-16-38.857-16s-28.571 5.714-38.857 16l-284.571 284.571c-10.286 10.286-16 24.571-16 38.857s5.714 28.571 16 38.857l77.714 77.714c10.286 10.286 24.571 16 38.857 16s28.571-5.714 38.857-16l168-168.571 374.857 375.429c10.286 10.286 24.571 16 38.857 16s28.571-5.714 38.857-16l77.714-77.714c10.286-10.286 16-24.571 16-38.857z" />
<glyph unicode="&#xe921;" glyph-name="google" d="M519.012 498.325v-120.725h199.65c-8.113-51.837-60.363-151.8-199.65-151.8-120.175 0-218.212 99.55-218.212 222.2s98.038 222.2 218.212 222.2c68.337 0 114.125-29.15 140.25-54.313l95.563 91.988c-61.325 57.475-140.8 92.125-235.813 92.125-194.562 0-352-157.438-352-352s157.438-352 352-352c203.087 0 337.975 142.863 337.975 343.887 0 23.1-2.475 40.7-5.5 58.3l-332.475 0.137z" />
<glyph unicode="&#xe922;" glyph-name="not-avail" horiz-adv-x="805" d="M741.714 195.428c0-14.286-5.714-28.571-16-38.857l-77.714-77.714c-10.286-10.286-24.571-16-38.857-16s-28.571 5.714-38.857 16l-168 168-168-168c-10.286-10.286-24.571-16-38.857-16s-28.571 5.714-38.857 16l-77.714 77.714c-10.286 10.286-16 24.571-16 38.857s5.714 28.571 16 38.857l168 168-168 168c-10.286 10.286-16 24.571-16 38.857s5.714 28.571 16 38.857l77.714 77.714c10.286 10.286 24.571 16 38.857 16s28.571-5.714 38.857-16l168-168 168 168c10.286 10.286 24.571 16 38.857 16s28.571-5.714 38.857-16l77.714-77.714c10.286-10.286 16-24.571 16-38.857s-5.714-28.571-16-38.857l-168-168 168-168c10.286-10.286 16-24.571 16-38.857z" />
</font>
</defs>
</svg>
