<svg xmlns="http://www.w3.org/2000/svg" fill="none" viewBox="0 0 488 380"><path fill="#fff" d="M14 0h460v380H14z"/><path fill="#6C7A84" d="M209.5 51.4c.4-4 1.2-7 2.4-9.2 1.2-2.3 3.2-4.4 6-6.4 2.7-2 4.6-3.7 5.6-5 1-1.3 1.6-2.8 1.8-4.4.4-4.7-1.6-7.3-6-7.7-2.1-.2-3.8.3-5.3 1.4a7.5 7.5 0 0 0-2.4 5L199.2 24c.6-5.4 2.8-9.4 6.5-12 3.8-2.8 8.6-3.8 14.6-3.2 6 .6 10.5 2.5 13.6 5.7 3 3.2 4.3 7.4 3.8 12.6a14.9 14.9 0 0 1-2.3 6.6c-1.3 2-3.4 4.2-6.4 6.5l-3.7 2.9a11.5 11.5 0 0 0-4.5 6.8l-.4 2.6-10.9-1zM207 64.2c.2-1.9 1-3.4 2.4-4.4a7 7 0 0 1 5.1-1.4c2 .2 3.6 1 4.8 2.3a6 6 0 0 1 1.5 4.9 6 6 0 0 1-2.4 4.4 7 7 0 0 1-5.1 1.3 7 7 0 0 1-4.9-2.3 6.1 6.1 0 0 1-1.4-4.8z"/><path fill="#4D4D4D" d="M157.7 52.2A25 25 0 0 1 155 43c0-2.5.6-5.3 2-8.4 1.4-3.2 2.2-5.6 2.4-7.2.2-1.7 0-3.2-.7-4.7-2-4.3-5-5.6-9-3.7-2 .8-3.2 2.1-3.8 3.8-.7 1.7-.5 3.6.3 5.7L135 33.6c-2.1-5-2.3-9.5-.4-13.7 2-4.2 5.6-7.5 11-10A20.8 20.8 0 0 1 160.4 8c4.2 1.3 7.4 4.3 9.6 9a14.9 14.9 0 0 1 1.3 7c0 2.3-.8 5.3-2.2 8.7l-1.8 4.4a11.5 11.5 0 0 0-.5 8.2l1 2.4-10 4.5zm4.2 12.3a6.1 6.1 0 0 1-.2-5 7 7 0 0 1 3.8-3.8c1.9-.8 3.6-1 5.3-.3a6 6 0 0 1 3.7 3.4 6 6 0 0 1 .2 5 7 7 0 0 1-3.8 3.7 7 7 0 0 1-5.4.5 6.1 6.1 0 0 1-3.6-3.5z"/><path fill="#BF4829" d="M129.3 89.8c-3.7-1.4-6.5-3-8.3-4.7a19.3 19.3 0 0 1-4.6-7.4 27.6 27.6 0 0 0-3.4-6.8 8.7 8.7 0 0 0-3.8-2.8c-4.4-1.7-7.4-.4-9 3.7-.7 2-.7 3.8 0 5.5a7.5 7.5 0 0 0 4.3 3.7L100 92.6c-5-2-8.3-5-10-9.4-1.6-4.3-1.4-9.3.8-14.9 2-5.7 5.1-9.5 9-11.6 3.9-2.2 8.3-2.3 13.2-.4a14.9 14.9 0 0 1 5.8 3.9c1.6 1.8 3.1 4.4 4.6 7.8l1.8 4.4c1.2 2.8 3 4.8 5.5 6l2.3 1.1-3.8 10.3zm11.7 5.7c-1.8-.7-3-1.8-3.7-3.5a7 7 0 0 1 0-5.3 6.9 6.9 0 0 1 3.5-4 6 6 0 0 1 5-.2 6 6 0 0 1 3.7 3.4 7 7 0 0 1 0 5.4 7 7 0 0 1-3.6 4c-1.5.8-3.2.8-5 .2zm106 214.9c2.3 5.6 6.8 10.7 12.7 12 11 2.7 11.9-4.9 31.4 5.7-2.8-7.4 21-24.2 2.8-45-14.9-17.3-23.2-13.7-38.1-5.1-12.8 7.4-14.2 19.3-8.9 32.4z"/><path fill="#DC4622" d="M246.1 298.1c11 22 33.7 19.3 39.8 8.6 4.6-8 1.7-18.2-2.2-25.9-1.8-3.4-4-6.8-6.7-9.7-6.5-1.1-12.8 2-21.2 7a21.4 21.4 0 0 0-11.6 16 48.4 48.4 0 0 0 1.9 4z"/><path fill="#fff" d="M256.8 295.3c5.1 10.4 15.8 9 18.7 4 2.1-3.8.7-8.5-1-12.1-1-1.7-2-3.2-3.2-4.6-3-.5-6 1-10 3.2-3.3 2-5 4.6-5.4 7.6l.9 2z"/><path fill="#C8CFDD" d="M261.2 225.4a29.5 29.5 0 0 0-25-3c-1.4.5-5.1 1.7-9.2 4.8a30.4 30.4 0 0 0-11.3 17.4c-.1.7-.4 1.7-.4 2.5-.2 1.4-.3 3.2-.3 4.5 0 1.5.2 3.1.4 5 0 0 .4 2.2 1.3 4.8.6 1.6.7 1.7 2.2 4.6 0 .2.2.3.4.5l-.3-.3 25.5 38c.7.4 1.9.7 3.4.7 7.5.1 22.1-6.4 32.7-14.4 7.5-5.7 11-10.5 9.8-13L270.9 235c-1.6-2.6-3-4-3.7-4.8a31 31 0 0 0-6-4.7z"/><path fill="#6C7A84" d="M267.2 230.2a28.5 28.5 0 0 0-12.7-7.8 29.4 29.4 0 0 0-18.3 0c-1.4.5-5.1 1.7-9.2 4.8-2.2 1.6-4 3.5-5.4 5.3l1.8 2.4a55.4 55.4 0 0 1 11 28.9c.4 5.3-1 13-4 19.3l14 21c.8.6 2 .9 3.5.9 7.4 0 22-6.5 32.7-14.5 7.4-5.6 10.9-10.5 9.8-12.9L270.9 235c-1.6-2.6-3.1-4-3.7-4.7z" opacity=".5"/><path fill="#6C7A84" d="M267.2 230.2a28.5 28.5 0 0 0-12.7-7.8 29.4 29.4 0 0 0-18.3 0 32.2 32.2 0 0 0-8 4c2.3 2 4.6 4.1 6.7 6.6 4.9 5.8 9.5 11.9 14 18a200.6 200.6 0 0 1 22.3 41.3l1.4 3.6c2.8-1.7 5.5-3.4 8-5.3 7.4-5.6 10.9-10.5 9.8-13L270.9 235c-1.6-2.6-3.1-4-3.7-4.7z" opacity=".5"/><path fill="#BF4829" d="M283 261.3c1.2 2.5-2.5 7.7-10.4 13.6-11.2 8.5-26.7 15.3-34.5 15.3-2.2 0-3.5-.5-4.1-1.4l-2.4-3.6c.6 1 2 1.5 4.1 1.5 8 0 23.6-7 35-15.5 8-6 11.6-11.2 10.4-13.8l1.9 3.9z"/><path fill="#8E2C13" d="M270.7 271.2a94 94 0 0 1-6.9 4.7l1.8 3.7a95 95 0 0 0 7-4.7c7.8-6 11.5-11 10.3-13.6l-1.1-2.5-.7-1.4c1.3 2.6-2.5 7.8-10.4 13.8z"/><path fill="#BF4829" d="M289 274.3c1 2.5-2.4 7.4-10 13.1-10.7 8.1-25.6 14.7-33 14.6-2 0-3.4-.5-4-1.3l-2.4-3.6c.6 1 2 1.4 4 1.4 7.6 0 22.6-6.6 33.5-14.8 7.6-5.7 11.2-10.7 10-13.2l1.8 3.8z"/><path fill="#8E2C13" d="M277.1 283.7a94.6 94.6 0 0 1-7.3 5l1.5 3.6.1.2a103 103 0 0 0 7.7-5.1c7.5-5.7 11-10.6 9.9-13l-1.8-4c1.1 2.5-2.5 7.5-10 13.3z"/><path fill="#4C464C" d="m331.6 139-14.5 31.7 6.7 3 14.5-31.7-6.7-3z"/><path fill="#131313" d="m331.6 138.9-3.7 8c1.3 4.4-.6 10.2-2 14-1 2.9-2.3 5.5-4.3 7.9l-2.2 2.8 4.5 2 14.5-31.7-6.8-3z"/><path fill="#C8CFDD" d="m306 167.9 5.6-8c.8-1 1.8-1.6 3-1.7 8.1-.9 16.3 3.9 21.2 8.5 1 1 1.5 2.5 1 4-1 3.4-2.8 9.7-3 10-.2.6-27.8-12.8-27.8-12.8z"/><path fill="#6C7A84" d="M323 159c-1.4 2-3.3 3.5-5.8 4.1-2.4.7-5.6 1.2-8.3.6l-3 4.2s27.7 13.4 27.9 12.9l3-10.2a4 4 0 0 0-1.1-4c-3.1-2.9-7.7-6-12.7-7.5z" opacity=".5"/><path fill="#6C7A84" d="M332.4 164c-7 4.8-17.4 5.8-24.8 1.6L306 168s27.6 13.4 27.8 12.9l3-10.2a4 4 0 0 0-1-4 67.8 67.8 0 0 0-3.4-2.7z" opacity=".5"/><path fill="#4E4E50" d="M396.5 75.8a5 5 0 1 0-10-1.1 5 5 0 0 0 10 1.1z"/><path fill="#413D3D" d="M392.6 70.4v.6a3 3 0 0 1-3.4 2.7 3 3 0 0 1-2-1A5 5 0 0 0 391 80a5 5 0 0 0 1.6-9.8z"/><path fill="#4C464C" d="m368 133.6-.7-.2c-1-.4-1.4-1.5-1-2.4l20.2-50.2-54.2 17.8a1.8 1.8 0 0 1-2.3-1.1 1.8 1.8 0 0 1 1.2-2.3l57.9-19a1.9 1.9 0 0 1 1.9.5c.5.5.6 1.3.4 1.9l-21.7 53.8a1.9 1.9 0 0 1-1.7 1.2z"/><path fill="#4C464C" d="M385.4 121.3h-.2c-1-.1-1.7-1-1.7-2l4.2-41.6c.1-1 1-1.7 2-1.7a2 2 0 0 1 1.7 2l-4.2 41.6c0 1-.8 1.7-1.8 1.7z"/><path fill="#C8CFDD" d="m395.5 137 .1-.3a9.2 9.2 0 0 0 .8-1.6c4.3-9.9-.2-22.3-6.2-31.4l-.4-.5a29.7 29.7 0 0 0-1.8-2.6c-14.3-19-38.5-30.2-54-25-13 4.3-19 24.4-17.3 37.8l.5 3.7a44.9 44.9 0 0 0 37.9 35.8c21.3 2.7 36.6-9.6 40.4-16z"/><path fill="#6C7A84" d="m390.2 103.8-.4-.5a30 30 0 0 0-1.8-2.6 72.5 72.5 0 0 0-23.7-20.2c-3 9.5-9.7 18.2-18.2 22.8a31 31 0 0 1-25.3 2.4 34.9 34.9 0 0 1-4.1-2c-.4 3.4-.4 6.7 0 9.8l.5 3.6a44.9 44.9 0 0 0 37.9 35.8c21.2 2.8 36.6-9.5 40.4-15.9l.1-.2a9.3 9.3 0 0 0 .8-1.6c4.3-10-.2-22.4-6.2-31.4z" opacity=".5"/><path fill="#6C7A84" d="M392.8 108.2A36 36 0 0 1 379 130a50.7 50.7 0 0 1-29.6 8 45.4 45.4 0 0 1-27.7-10l-1.3-1a45 45 0 0 0 34.8 26c21.3 2.7 36.7-9.6 40.4-16l.2-.2a9.2 9.2 0 0 0 .8-1.6c3.6-8.4.9-18.6-3.7-27z" opacity=".5"/><path fill="#C8CFDD" d="M354 205a64.2 64.2 0 0 0-67.3-41 63.8 63.8 0 0 0-56.4 58 64.3 64.3 0 0 0 90.6 63.6A63.7 63.7 0 0 0 354 205z"/><path fill="#6C7A84" d="M354 205a64.2 64.2 0 0 0-67.3-41 63.6 63.6 0 0 0-11.8 2.4c29.1 9.4 33.8 22.3 34.7 43.1 1.7 40.5-30.3 73.1-68.5 53.6a64.1 64.1 0 0 0 79.8 22.6A63.7 63.7 0 0 0 354 205z" opacity=".5"/><path fill="#6C7A84" d="M354 205c-3.2-9.2-9-17.8-16.6-24.7l-1.7 5.7c-9.6 29.4-15.5 131.9-94.5 77.2a64.1 64.1 0 0 0 79.7 22.4A63.6 63.6 0 0 0 354 205z" opacity=".5"/><path fill="#BF4829" d="M350.6 291.3c2.3 5.6 6.8 10.7 12.7 12 11 2.7 12-4.9 31.4 5.7-2.8-7.4 21-24.2 2.9-45-15-17.3-23.3-13.7-38.2-5.1-12.8 7.4-14.2 19.3-8.8 32.4z"/><path fill="#DC4622" d="M351.8 278c7.8 17.4 30.6 20 35.4 14.7 6-6.5 5.7-25 1.4-36.7l-.3-.7c-9.8-6.6-17.4-3-28.9 3.6a22.4 22.4 0 0 0-10.5 11.6 70 70 0 0 0 2.9 7.4z"/><path fill="#fff" d="M362.6 275.3c3.3 7.3 12.8 8.4 14.7 6.2 2.5-2.7 2.4-10.4.6-15.3v-.2c-4.1-2.8-7.3-1.4-12.1 1.4a9.2 9.2 0 0 0-4.4 4.9 54.1 54.1 0 0 0 1.2 3z"/><path fill="#C8CFDD" d="M364.9 206.3a29.4 29.4 0 0 0-25-3c-1.4.5-5.2 1.7-9.2 4.8a30.4 30.4 0 0 0-11.3 17.3l-.5 2.6-.3 4.5a30.4 30.4 0 0 0 1.8 9.7c.6 1.7.6 1.8 2.1 4.7l.4.5-.3-.3 25.6 38c.7.4 1.8.7 3.4.7 7.4 0 22-6.4 32.7-14.4 7.4-5.7 11-10.5 9.8-13l-19.6-42.7a30.8 30.8 0 0 0-9.6-9.4z"/><path fill="#6C7A84" d="M370.8 211a28.5 28.5 0 0 0-12.7-7.7 29.4 29.4 0 0 0-18.3 0 31.2 31.2 0 0 0-14.6 10.1l1.8 2.4a55.4 55.4 0 0 1 11 28.9c.4 5.3-1 13-4 19.3l14 21c.8.6 2 .9 3.5.9 7.4 0 22-6.5 32.7-14.5 7.4-5.6 10.9-10.5 9.8-12.9l-19.6-42.7c-1.5-2.5-3-4.1-3.6-4.7z" opacity=".5"/><path fill="#6C7A84" d="M370.8 211a28.5 28.5 0 0 0-12.7-7.7 29.4 29.4 0 0 0-18.3 0 32.2 32.2 0 0 0-8 4c2.3 2 4.6 4.1 6.7 6.6 4.9 5.8 9.5 11.9 14 18a200.6 200.6 0 0 1 22.4 41.3l1.3 3.6c2.8-1.7 5.5-3.5 8-5.3 7.4-5.7 10.9-10.5 9.8-13l-19.6-42.7c-1.5-2.5-3-4.1-3.6-4.7z" opacity=".5"/><path fill="#BF4829" d="M386.6 242.2c1.2 2.5-2.5 7.7-10.3 13.6-11.2 8.5-26.7 15.3-34.6 15.3-2.1 0-3.4-.5-4-1.5l-2.5-3.5c.7 1 2 1.5 4.2 1.5 8 0 23.6-7 35-15.5 7.9-6 11.6-11.2 10.4-13.8l1.8 3.9z"/><path fill="#8E2C13" d="M374.3 252.1a93.8 93.8 0 0 1-6.8 4.7 123.8 123.8 0 0 1 1.8 3.7c2.4-1.5 4.7-3 6.9-4.7 7.9-6 11.5-11 10.4-13.6l-1.2-2.5-.7-1.4c1.3 2.6-2.4 7.8-10.4 13.8z"/><path fill="#BF4829" d="M392.6 255.2c1.1 2.5-2.4 7.4-10 13.1-10.7 8.1-25.5 14.7-33 14.6-2 0-3.3-.5-3.9-1.3l-2.4-3.6c.6 1 2 1.4 4 1.4 7.6 0 22.6-6.6 33.5-14.8 7.6-5.7 11.2-10.7 10-13.2l1.8 3.8z"/><path fill="#8E2C13" d="M380.8 264.6a94.6 94.6 0 0 1-7.4 5 108 108 0 0 1 1.6 3.6v.2a103 103 0 0 0 7.7-5.1c7.5-5.7 11-10.6 10-13l-1.8-4c1 2.5-2.5 7.5-10.1 13.3z"/><path fill="#131313" d="m245.7 209.4-.8-.1c-3.4-1.2-2.8-9.2-.4-16 2.4-7 6.8-13.6 10.2-12.4 3.4 1.2 2.8 9.1.4 16-2.2 6.4-6 12.5-9.4 12.5zM254 182c-2.1 0-5.8 4.5-8.3 11.7-2.6 7.6-2.3 13.8-.3 14.5 2 .6 6-4 8.7-11.6 2.6-7.7 2.3-13.8.3-14.5h-.4z"/><path fill="#131313" d="M252.6 196.1c1.5-4.5 1.5-8.6 0-9.1-1.7-.6-4.2 2.6-5.8 7.1-1.5 4.6-1.5 8.7 0 9.2 1.7.5 4.2-2.7 5.8-7.2z"/><path fill="#4C464C" d="m218.2 179.3-2.8 6.8 32.2 13.3 2.8-6.8-32.2-13.3z"/><path fill="#131313" d="m218.1 179.3-2.8 6.7 6.7 2.8c3.9-1.5 8.6-1.6 12.2 0 4.3 1.7 7 4.7 8.4 8.5l5 2.1 2.8-6.8-32.3-13.3z"/><path fill="#C8CFDD" d="M208.8 191a13.8 13.8 0 1 0 0-27.7 13.8 13.8 0 0 0 0 27.6z"/><path fill="#6C7A84" d="M208.8 191a13.8 13.8 0 1 0 0-27.7 13.8 13.8 0 0 0 0 27.6z" opacity=".5"/><path fill="#6C7A84" d="M208.8 163.3c-2.2 0-4.1.6-6 1.4.6 1.3 1.2 2.5 1.7 3.9.8 2.3 1 4.8 1 7.2-.1 4.2-1.4 8.2-3.3 11.8l-.6 1.2a13.7 13.7 0 0 0 7.2 2.1 13.8 13.8 0 1 0 0-27.6z" opacity=".5"/><path fill="#4C464C" d="M266.7 135.4c10 2.1 17 7.5 20.6 16 1.8 3.8 2.6 8 3 12.2l3.6-.1c-1-12-6.3-27.4-26.5-31.7-8-1.6-19.2-4.8-25.4-13.1a15 15 0 0 1-3-7.2l-3.7.5c.4 3 1.6 5.9 3.8 8.8 6.8 9.4 19 12.8 27.6 14.6z"/><path fill="#4C464C" d="M242.2 111c1.5.3 2.2 2.1 3 4 .4 1 .8 1.9 1.3 2.7a16 16 0 0 0 8.1 7.3c2.4.9 5.1 1 8.5.4 5.3-.8 10.3-3 15-5.3l2.2-1a41.1 41.1 0 0 1 16.2-4.3h.3c5.9 0 11.1 2.9 13.2 7.2.7 1.4 1 2.7.9 4-.2 1.7-1 3.4-2 5.2a24.9 24.9 0 0 0-.8 1.6c-1.9 3.8-2 7-.6 9.6 1 1.7 2.7 2.8 4.2 3.7l1.4 1c3 2 4.7 5.8 4.3 9.2-.4 3.8-3.2 6.3-7.3 6.6-1.7.2-3.8.6-5.8 1.4 2.8.5 5.5 1.1 8.2 2a11 11 0 0 0 8.6-9.6c.5-4.7-1.7-9.7-5.9-12.6a28.1 28.1 0 0 0-1.6-1 8.5 8.5 0 0 1-3-2.6c-1-1.7-.2-4.2.7-6l.8-1.6c1.1-2 2.2-4.2 2.4-6.7.2-1.9-.3-3.9-1.2-5.8-2.7-5.6-9.2-9.2-16.5-9.3-6.6 0-12.7 2.4-18 4.7l-2 .9c-4.7 2-9.4 4.2-14.3 5a13 13 0 0 1-6.6-.3c-2.4-.8-4.4-2.7-6.2-5.7-.4-.6-.7-1.4-1-2.2-1-2.4-2.3-5.4-5.5-6.2a7 7 0 0 0-4 .3 16.4 16.4 0 0 0-8.7 7.2l3.2 1.8c1.4-2.6 3.9-4.6 6.6-5.5 1-.2 1.5-.2 2-.1z"/><path fill="#4C464C" d="M252 104.8a23.7 23.7 0 0 1 13.7 11.7l2.5 5.3c2.3 5.2 4.7 10.7 10 13.5 3.6 2 7.5 2 11.4 2.2h1.7a8 8 0 0 1 7 4.7c3 5.3 3 13.9 2.1 21.6 1.3 0 2.4.2 3.6.4 1-8 .8-17-2-23-2.2-4.6-5.8-7-10.5-7.3h-1.8c-3.6-.2-7-.3-9.8-1.8-4.1-2.2-6.2-6.9-8.3-11.8l-2.6-5.5a27.3 27.3 0 0 0-15.9-13.5 20 20 0 0 0-20.2 5c-1.8 2-1.7 3.7-1.4 4.8l3.5-1.2s.1-.4.7-1a16.1 16.1 0 0 1 16.3-4z"/><path fill="#131313" d="m217.5 151.4 3.4 9.4c1.4 4-1.4 9.1-7.4 13.2-8.2 5.3-19.4 6.6-25 2.8-1.4-1-2.3-2-2.7-3.4l-3.4-9.4a7.5 7.5 0 0 0 2.7 3.4c5.7 3.8 16.8 2.5 25-2.9 6-4 8.8-9.1 7.4-13z"/><path fill="#4C464C" d="M214.7 148c5.6 3.8 3.5 11.2-4.7 16.6-8.2 5.3-19.3 6.7-25 2.9-5.5-3.8-3.5-11.2 4.7-16.6 8.2-5.4 19.4-6.7 25-2.9z"/><path fill="#413D3D" d="m199.1 71.1-.6.2c-1 .2-1.6 1-1.8 1.9l-7.5 41c-.2 1.3 1 3.2 2.2 3 1.1-.4 1.6-2.7 1.9-4l8.3-39.7c.2-1-1.5-2.6-2.5-2.4z"/><path fill="#313031" d="m200 72.1-.7.2c-.8.2-1.5 1-1.7 1.9l-7.5 41c-.2 1.3.5 2 1.6 1.8 1-.3 2.2-1.5 2.4-2.8l7.5-40.6c.1-.9-.6-1.7-1.6-1.5z"/><path fill="#413D3D" d="M192.5 112.9c.7-.2 1.2.4 1 1.1-.1.8-.8 1.6-1.5 1.8-.7.1-1.1-.4-1-1.2.2-.8.9-1.6 1.5-1.7z"/><path fill="#6C7A84" d="m229.4 99.4-2.3.4c-5.7 1.3-11.5 2.1-17.2 3-11.9 1.7-23.8 2.9-35.6 4.7l-17.8 3.2c-6 1-12.5 1.2-18.4 3.2-4.5 1.6-9 3.9-11.9 7.8-1.7 2.4-3 5-4.2 7.7l-.3.6c0 1.6 0 3.2-.2 5l108.1-19.1c.3-1.4.5-2.8.6-4.3a53.4 53.4 0 0 0-.8-12.2z"/><path fill="#C8CFDD" d="M250.2 138.7c1.2-15-6.6-30-17.5-33.7a14 14 0 0 0-7-.5L136.3 120c2.2-.3 4.5-.2 7 .6 10.8 3.6 18.6 18.6 17.4 33.6-1 11.7-7 19.9-14.8 21.2l89.5-15.6c7.8-1.4 13.9-9.5 14.8-21.1z"/><path fill="#313031" d="M250.2 138.7c1.2-15-6.6-30-17.5-33.7a14 14 0 0 0-7-.5L136.3 120c2.2-.3 4.5-.2 7 .6 10.8 3.6 18.3 18.6 17.1 33.6-1 11.6-6.8 19.9-14.6 21.2l89.5-15.6c7.9-1.4 14-9.5 15-21.1z"/><path fill="#131B21" d="M139 173.8c-10.5-3.5-18-18-16.8-32.4 1.1-14.4 10.6-23.3 21-19.8 10.5 3.5 18 18 16.8 32.4-1.2 14.4-10.5 23.2-21 19.8zm4.3-53.3c-10.9-3.6-20.6 5.7-21.8 20.7-1.2 15 6.6 30 17.5 33.6 10.8 3.6 20.6-5.6 21.8-20.6 1.1-15-6.7-30-17.5-33.7z"/><path fill="#BF4829" d="M139.2 171c-9.4-3-16.1-16-15-29 1-13 9.4-20.8 18.8-17.8 9.3 3.2 16.1 16.1 15 29-1 13-9.4 21-18.8 17.9zm4-49.4c-10.5-3.5-20 5.4-21 19.8-1.2 14.4 6.3 29 16.8 32.4 10.4 3.5 19.8-5.4 21-19.8 1.2-14.5-6.4-29-16.8-32.4z"/><path fill="#313031" d="M139.5 169.2c-1-.4-1.7-1.8-1.7-3.3.1-1.4 1-2.3 2.1-2 1 .4 1.8 1.8 1.7 3.2 0 1.5-1 2.4-2 2zm5.2.2c-.7-.2-1.4-1-1.6-2.2-.3-1.4.3-2.8 1.3-3h.7c.7.3 1.4 1.1 1.6 2.2.3 1.5-.3 2.9-1.3 3a1.2 1.2 0 0 1-.7 0zm-10.5-3.5a2 2 0 0 1-.7-.4c-1-1-1.3-2.6-.7-3.8.3-.9 1.1-1.2 1.8-1 .3 0 .5.2.8.5.9.8 1.2 2.5.7 3.7-.4 1-1.1 1.3-1.9 1zm-4-5.3c-.4-.2-.9-.6-1.2-1.2-.7-1.3-.6-3 .3-3.7.4-.4 1-.5 1.4-.3.4.1 1 .5 1.2 1.2.7 1.2.5 2.9-.2 3.7-.4.3-1 .4-1.4.3zm19.4 6.1c-.5-.1-1-.5-1.3-1.2-.6-1.2-.5-2.9.3-3.7.4-.4 1-.5 1.4-.3.5.2 1 .6 1.2 1.2.7 1.3.6 3-.2 3.7-.4.4-1 .5-1.4.3zm-9.3-4.7c-.5-.2-.9-.5-1.2-1.1-.7-1.3-.7-3 .2-3.8.4-.4 1-.5 1.4-.3.5.1 1 .5 1.3 1 .7 1.3.6 3-.2 3.8-.4.4-1 .5-1.5.4zm-5.8-5c-1-.4-1.7-1.8-1.6-3.2 0-1.4 1-2.4 2-2.1 1 .3 1.8 1.7 1.8 3.1 0 1.5-1 2.4-2 2.1h-.2zm12 3.2c-1-.3-1.8-1.8-1.8-3.2 0-1.4 1-2.4 2-2.1h.2c1 .3 1.7 1.7 1.7 3.1 0 1.5-1 2.4-2 2.2h-.1zm6.4 1.5a2 2 0 0 1-.7-.4c-1-1-1.3-2.6-.7-3.8.3-.9 1.1-1.3 1.8-1 .3 0 .5.2.8.4.9.9 1.2 2.5.7 3.7-.4 1-1.2 1.4-1.9 1.1zm-25.2-8.4c-.8-.3-1.4-1.1-1.7-2.2-.3-1.5.4-2.8 1.3-3 .3-.1.6-.1.8 0 .7.2 1.4 1 1.6 2.2.3 1.4-.3 2.8-1.3 3h-.7zm4.8-5.3c-.5-.2-1-.5-1.2-1.1-.7-1.3-.7-3 .1-3.8.4-.4 1-.5 1.5-.3.4.1.9.5 1.2 1 .6 1.3.6 3-.2 3.8-.4.4-1 .5-1.4.4zm-5.3-2c-1-.4-1.8-1.8-1.7-3.3.1-1.4 1-2.3 2.1-2 1 .4 1.8 1.8 1.7 3.2 0 1.5-1 2.4-2.1 2zm27.3 8.6c-1-.3-1.7-1.7-1.6-3.2 0-1.4 1-2.3 2-2 1 .3 1.9 1.8 1.8 3.2-.1 1.5-1 2.4-2.2 2zm-5.2-2c-.5-.1-.9-.5-1.2-1-.7-1.3-.7-3 .2-3.8.4-.4 1-.6 1.4-.4.5.2 1 .5 1.3 1.2.7 1.2.6 2.9-.2 3.6-.4.5-1 .6-1.5.4zm-8.8 2.3c-2.8-1-5-5-4.6-9 .3-4 2.9-6.4 5.8-5.4 2.8 1 5 5 4.6 8.9-.3 4-3 6.4-5.8 5.5zm13.6-7.6c-.7-.3-1.4-1-1.6-2.2-.3-1.4.3-2.8 1.3-3h.7c.8.3 1.4 1 1.6 2.2.3 1.4-.3 2.8-1.3 3h-.7zm-25.2-8.4a2 2 0 0 1-.8-.5c-1-.9-1.2-2.5-.7-3.7.4-1 1.1-1.3 1.9-1l.7.3c1 1 1.3 2.6.7 3.8-.3 1-1.1 1.3-1.8 1zm6.4 1.5c-1-.3-1.8-1.7-1.7-3.1.1-1.5 1-2.4 2-2.2h.1c1 .3 1.8 1.7 1.7 3.1 0 1.5-1 2.4-2 2.2zm12 3.3c-1-.4-1.8-1.8-1.7-3.2 0-1.4 1-2.4 2-2.1h.1c1 .3 1.8 1.7 1.7 3.1 0 1.5-1 2.4-2 2.2h-.2zm-5.8-5c-.5-.2-1-.6-1.3-1.2-.7-1.3-.6-3 .2-3.7.4-.4 1-.6 1.5-.4.4.2.9.5 1.2 1.1.7 1.2.6 3-.2 3.7-.4.5-1 .6-1.4.4zm-9.3-4.8c-.5-.2-1-.6-1.3-1.2-.6-1.3-.5-3 .3-3.7.4-.4 1-.5 1.4-.3.5.1 1 .5 1.3 1.2.6 1.2.5 2.9-.3 3.7-.4.3-1 .4-1.4.3zm19.3 6.1c-.5-.1-1-.6-1.2-1.2-.7-1.2-.6-2.9.2-3.7.4-.4 1-.5 1.4-.3.5.2 1 .6 1.3 1.2.6 1.3.5 3-.3 3.7-.4.4-.9.5-1.4.3zm-4-5.3a2.6 2.6 0 0 1-.7-.5c-1-.8-1.3-2.5-.8-3.7.4-.9 1.2-1.3 2-1 .2 0 .4.2.6.4 1 .8 1.3 2.5.8 3.7-.4.9-1.1 1.3-1.9 1zm-10.4-3.5c-.7-.3-1.4-1.1-1.6-2.2-.3-1.5.3-2.8 1.3-3h.7c.7.2 1.4 1 1.6 2.1.3 1.5-.3 2.9-1.3 3.1h-.7zm5.1.2c-1-.3-1.8-1.7-1.7-3.2.1-1.5 1-2.3 2.1-2 1.1.3 1.8 1.7 1.7 3.2 0 1.5-1 2.3-2 2zm.8-7.2c-9.4-3-17.8 4.9-18.9 17.8-1 13 5.7 26 15.1 29 9.4 3.2 17.8-4.7 18.9-17.7 1-13-5.8-26-15.1-29z"/><path fill="#131B21" d="M140.7 152.8c-2-.7-3.6-3.5-3.4-6.3.3-2.8 2.1-4.6 4.2-4 2 .7 3.5 3.6 3.2 6.4-.1 2.8-2 4.6-4 4zm1-12.3c-2.9-1-5.5 1.4-5.8 5.5-.3 4 1.8 7.9 4.6 8.9 2.9.9 5.5-1.5 5.8-5.5.3-4-1.8-8-4.6-9z"/><path fill="#413D3D" d="M140.8 151.8c-.4-.2-.7-.7-.7-1.4 0-.6.4-1 .8-.8.5.1.8.7.8 1.3 0 .7-.5 1-1 .9zm.7-9.2c-2-.7-3.9 1-4.1 3.9-.2 2.8 1.2 5.6 3.3 6.3 2 .7 4-1 4.1-3.9.2-2.8-1.3-5.7-3.3-6.3zm-13.9-1.9c-1-.3-2 .6-2 2-.2 1.5.6 3 1.6 3.3 1 .3 2-.6 2.1-2 .1-1.5-.7-3-1.7-3.3zm27.3 8.7c-1-.4-2 .6-2 2-.1 1.4.6 2.9 1.6 3.2 1.1.4 2-.5 2.2-2 0-1.4-.7-2.8-1.8-3.2z"/><path fill="#BF4829" d="M140 164c-1-.3-2 .5-2.1 2-.1 1.5.6 2.9 1.7 3.2 1 .3 2-.6 2-2 .1-1.5-.6-3-1.7-3.2z"/><path fill="#413D3D" d="M142.7 126.2c-1-.4-2 .5-2.1 2-.1 1.4.6 2.8 1.7 3.2 1 .3 2-.6 2-2 .2-1.5-.6-2.9-1.6-3.2zm-10 2.4c-.6-.1-1 0-1.5.3-.8.8-1 2.5-.3 3.7.4.6.8 1 1.3 1.2.5.2 1 0 1.4-.3.8-.8 1-2.5.3-3.7a2.6 2.6 0 0 0-1.3-1.2zm17.3 32.9c-.5-.2-1 0-1.4.3-.8.8-1 2.4-.3 3.7.3.6.8 1 1.3 1.2.4.1 1 0 1.4-.3.8-.8 1-2.5.2-3.7a2.5 2.5 0 0 0-1.2-1.2zm-19.3-6.1c-.5-.2-1 0-1.4.3-.9.8-1 2.4-.3 3.7.3.6.8 1 1.3 1.2.4.1 1 0 1.4-.4.8-.8 1-2.4.2-3.7-.3-.6-.8-1-1.2-1.1zm21.2-20.6c-.4-.2-1-.1-1.4.3-.8.7-1 2.4-.2 3.7.3.6.7 1 1.2 1.2.5.1 1 0 1.4-.3.8-.8 1-2.5.3-3.7-.3-.7-.8-1-1.3-1.2zm-22.6-1.2c-.8-.2-1.5.1-1.9 1-.5 1.2-.2 3 .7 3.8l.8.5c.7.2 1.5-.1 1.8-1 .6-1.3.2-3-.7-3.8l-.7-.5zm24 22.9c-.7-.3-1.5 0-1.8 1-.6 1.2-.2 2.9.7 3.8l.7.4c.7.3 1.5 0 1.9-1 .5-1.2.1-2.9-.7-3.8l-.8-.4zm-18.7 4.2c-.7-.2-1.5.1-1.8 1-.6 1.3-.2 3 .7 3.8l.7.5c.7.3 1.5-.1 1.9-1 .5-1.2.2-3-.7-3.8a1.3 1.3 0 0 0-.8-.5zm13.4-31.3c-.8-.3-1.5.1-2 1-.4 1.2 0 2.9.8 3.8l.7.4c.8.3 1.6-.1 2-1 .4-1.2 0-2.9-.8-3.8l-.7-.4zm-10.5-3.5h-.7c-1 .2-1.6 1.6-1.3 3 .2 1.1.9 2 1.6 2.2h.7c1-.1 1.6-1.5 1.3-3-.2-1.1-.9-2-1.6-2.2zm7.6 38.3h-.7c-1 .2-1.6 1.6-1.3 3 .2 1.1.9 2 1.6 2.2h.7c1-.1 1.6-1.5 1.3-3-.2-1-.9-2-1.6-2.2zm-17-16.2h-.8c-1 .2-1.6 1.6-1.3 3 .3 1.1 1 2 1.7 2.2h.7c1-.1 1.6-1.5 1.3-3-.2-1-.8-2-1.6-2.2zm26.4-5.9h-.7c-1 .2-1.6 1.6-1.3 3 .2 1.1.9 2 1.6 2.2h.7c1-.2 1.7-1.6 1.3-3-.2-1.2-.8-2-1.6-2.2zm-21.6.7c-.6-.2-1 0-1.5.3-.8.9-.9 2.5-.1 3.8.3.6.7 1 1.2 1 .5.2 1 .1 1.4-.3.8-.8.9-2.5.2-3.7-.3-.6-.8-1-1.2-1.1zm16.8 4.6c-.5-.2-1-.1-1.4.3-.8.9-1 2.5-.2 3.8.3.5.8.9 1.2 1 .5.2 1 .1 1.5-.3.8-.8.9-2.5.2-3.7-.4-.6-.8-1-1.3-1.1zm-9 9.3c-.5-.1-1 0-1.4.4-.8.8-1 2.5-.2 3.7.3.6.7 1 1.2 1.1.5.2 1 0 1.5-.3.7-.9.9-2.5.2-3.8-.4-.5-.8-1-1.3-1zm1.2-23.3c-.5-.2-1-.1-1.5.3-.8.8-.9 2.5-.2 3.7.3.6.8 1 1.3 1.2.5.1 1 0 1.4-.4.8-.8.9-2.5.2-3.8-.3-.5-.8-.9-1.2-1zm-7 18.3c-1-.3-2 .7-2 2.1 0 1.4.6 2.8 1.6 3.1h.1c1 .3 2-.6 2-2.1.1-1.4-.7-2.8-1.7-3.1zm12.8-13.2h-.2c-1-.3-2 .6-2 2 0 1.5.7 2.9 1.7 3.2 1.1.3 2-.7 2.1-2.1.1-1.5-.6-2.8-1.6-3.1zm-.8 16.5h-.1c-1-.4-2 .6-2 2-.1 1.5.6 2.9 1.7 3.2 1 .3 2-.7 2-2.1 0-1.4-.6-2.8-1.6-3.1zm-11.2-19.8c-1-.3-2 .7-2 2.1-.1 1.4.6 2.8 1.6 3.1h.1c1 .3 2-.6 2-2.1.1-1.4-.6-2.8-1.7-3.1z"/><path fill="#BF4829" d="M141 149.6c-.5-.2-.9.2-1 .8 0 .7.3 1.2.8 1.4.4.1.8-.2.9-.9 0-.5-.3-1.2-.8-1.3z"/><path fill="#C8CFDD" d="m162.5 159.4 108.1-19c.3-1.4.5-2.8.6-4.3 1.4-17.8-8-35.8-20.8-40a17 17 0 0 0-8.4-.8L135.4 114c14.3-2.5 29.3 16.5 27.1 45.5z"/><path fill="#878F95" d="M271.1 136.2c1.4-17.8-7.7-35.6-20.5-40-3.7 18.8-74 28.7-92.8 33.3a60 60 0 0 1 4.7 30l108.1-19.1.5-4.2z"/><path fill="#6C7A84" d="M271.1 136.2c.9-10.5-2-21-7-28.7-3.5 23.5-78.5 34.8-102 37.6.6 4.4.8 9.2.4 14.3l108.1-19 .5-4.2z"/><path fill="#8D9B9A" d="M121.4 135c2.6-13 11.7-20.6 21.9-17.2 11.2 3.7 19.2 19.2 18 34.6a33 33 0 0 1-1 5.7l2.3 1.4c.5-2 .8-4 1-6.3 1.3-17.2-7.6-34.5-20-38.6-11.4-3.8-21.6 4.5-24.5 19l2.3 1.3z"/><path fill="#6C7A84" d="M221 128.7c-.4.5-.5 1.3-.5 2 .1 1 .6 1.8 1 2.7l.5 1.9c.2.5 0 1 0 1.6 0 1 0 2.1.2 3.2.1.9.5 2.7 1.8 2.6.8 0 1.5-.8 1.7-1.5.8-2 2.7-5.4 1.4-8.6-.4-1-1-2-1.6-2.7a5.4 5.4 0 0 0-2-1.8c-.6-.2-1.5-.2-2 .2a1 1 0 0 0-.4.4z"/><path fill="#413D3D" d="m232 92.5-.7.1c-.9.2-1.5 1-1.8 2l-7.5 41c-.2 1.2 1.1 3.1 2.3 2.9 1-.3 1.6-2.7 1.8-3.9l8.3-39.8c.2-1-1.5-2.5-2.4-2.3z"/><path fill="#313031" d="m232.9 93.5-.7.1c-.9.2-1.6 1-1.8 1.9l-7.5 41c-.2 1.3.6 2.1 1.6 1.8 1.1-.2 2.2-1.5 2.5-2.8l7.4-40.6c.1-.9-.6-1.6-1.5-1.4z"/><path fill="#413D3D" d="M225.3 134.2c.7-.1 1.2.4 1 1.2-.1.8-.8 1.5-1.5 1.7-.7.2-1.1-.4-1-1.1.2-.8.9-1.6 1.5-1.8z"/><path fill="#fff" d="M143.2 121.6c-10.5-3.5-20 5.4-21 19.8l-.1 1.1 29.1-15.5a19.4 19.4 0 0 0-8-5.4zm-7.7 50.6c1.1.7 2.3 1.2 3.5 1.6 10.5 3.5 19.8-5.4 21-19.8.2-1.7.2-3.3 0-5l-24.5 23.2zm-7.4-7.3 30.8-23.4-1-3.3-33 20.7a36.3 36.3 0 0 0 3.2 6z" opacity=".3"/><path fill="#6C7A84" d="M236.1 134s8 3.3 9.1 8.7c1.2 5.3-.5 13-4.6 15-2.3 1.2-3.7-3.3-3.7-3.3L236 134z"/><path fill="#C8CFDD" d="M243.4 151.8c.6-5.1-1.9-10.5-5.5-12.1-1-.4-1.8-.5-2.6-.4l-48 8.2c1-.1 1.8 0 2.7.4 3.6 1.5 6 7 5.5 12-.4 3.9-2.4 6.5-4.8 6.9l47.9-8.2c2.4-.4 4.4-3 4.8-6.8z"/><path fill="#C8CFDD" d="M190 147.9c3.6 1.5 6 7 5.5 12-.6 5.2-4 8-7.5 6.5-3.6-1.6-6-7-5.5-12 .5-5.2 4-8 7.5-6.5z"/><path fill="#8D9B9A" d="M188.2 164.6c-3-1.2-4.9-5.6-4.5-9.7.5-4.2 3.2-6.6 6.1-5.3 3 1.2 5 5.6 4.4 9.8-.4 4.1-3 6.5-6 5.2zm1.8-16.8c-3.6-1.5-7 1.4-7.5 6.5-.6 5.2 2 10.6 5.5 12.1 3.6 1.6 7-1.3 7.5-6.4.6-5.2-1.9-10.6-5.5-12.2z"/><path fill="#313031" d="M188.3 163.5v-.2l.2-2.5v-.1l.2.2-.3 2.5v.1zm-3.7-8v-.3l1.8.7V156.2l-1.8-.8zm7 2.9-.1-.2v-.1l1.9.8v.2l-1.8-.7zm-2.8 1c-1-.4-1.5-1.7-1.3-3 .1-1.2 1-1.9 1.8-1.5.9.4 1.5 1.7 1.3 3-.2 1.2-1 1.8-1.8 1.5zm.6-5.9-.1-.2.3-2.5.2.1-.3 2.5v.1zm.4-3.9c-2.9-1.2-5.6 1.1-6 5.3-.5 4.2 1.5 8.5 4.4 9.8 3 1.2 5.6-1.1 6.1-5.3.4-4.1-1.6-8.5-4.5-9.8z"/><path fill="#BF4829" d="M189.2 154.9c-.8-.4-1.6.3-1.8 1.6-.1 1.2.5 2.5 1.3 2.9 1 .3 1.7-.3 1.9-1.6.1-1.2-.5-2.5-1.4-2.9zm.5-4.2v.1l-.4 2.6.1.1h.1l.3-2.6v-.2zm-1 10h-.2l-.2 2.6v.2h.1l.3-2.6v-.2zm-2.3-4.8-1.7-.8-.1.1v.2l1.8.8V155.9zm7 3-1.8-.8V158.4l1.8.8.1-.1v-.2z"/><path fill="#878F95" d="M243.4 151.8c.6-5.1-1.9-10.5-5.5-12.1-1-.4-1.8-.5-2.6-.4l-1.6.3c7.5 5.6-29.3 13.9-38.8 14.5.6 1.8.9 3.8.6 5.9-.4 3.8-2.3 6.4-4.8 6.8l47.9-8.2c2.4-.4 4.4-3 4.8-6.8z"/><path fill="#6C7A84" d="M243.4 151.8c.3-2.6-.2-5.3-1.3-7.6 4.8 13.3-34.8 15.3-46.8 16.8-.6 3.2-2.4 5.4-4.6 5.8l47.9-8.2c2.4-.4 4.4-3 4.8-6.8z"/><path fill="#878F95" d="m233.7 139.6-3.4-4.4 5.8-1.3s9.5 5.4 6.9 12.6c-1.8 5-5 5.4-5 5.4s.5-9.4-1.2-10.7c-1.7-1.2-3-1.6-3-1.6z"/><path fill="#6C7A84" d="m230.3 135.2-.9 5.1 4.3-.7-3.4-4.4z"/><path fill="#313031" d="M234.6 136.6c1-.2 1.7-.6 1.7-1-.1-.2-1-.2-2 0-.9.2-1.6.6-1.6 1 0 .2 1 .2 2 0z"/><ellipse fill="#EDEDED" rx="142.7" ry="6.7" transform="matrix(-1 0 0 1 261.7 371.3)"/></svg>